<svg width="382" height="135" viewBox="0 0 382 135" fill="none" xmlns="http://www.w3.org/2000/svg">
<rect width="382" height="135" rx="20" fill="#343333"/>
<path d="M92.685 79V57.1818H95.3271V76.6562H105.469V79H92.685ZM115.867 79.3409C114.39 79.3409 113.093 78.9893 111.978 78.2862C110.87 77.5831 110.004 76.5994 109.379 75.3352C108.761 74.071 108.452 72.5937 108.452 70.9034C108.452 69.1989 108.761 67.7109 109.379 66.4396C110.004 65.1683 110.87 64.1811 111.978 63.478C113.093 62.7749 114.39 62.4233 115.867 62.4233C117.344 62.4233 118.637 62.7749 119.745 63.478C120.86 64.1811 121.726 65.1683 122.344 66.4396C122.969 67.7109 123.282 69.1989 123.282 70.9034C123.282 72.5937 122.969 74.071 122.344 75.3352C121.726 76.5994 120.86 77.5831 119.745 78.2862C118.637 78.9893 117.344 79.3409 115.867 79.3409ZM115.867 77.0824C116.989 77.0824 117.912 76.7947 118.637 76.2195C119.361 75.6442 119.897 74.8878 120.245 73.9503C120.593 73.0128 120.767 71.9972 120.767 70.9034C120.767 69.8097 120.593 68.7905 120.245 67.8459C119.897 66.9013 119.361 66.1378 118.637 65.5554C117.912 64.973 116.989 64.6818 115.867 64.6818C114.745 64.6818 113.821 64.973 113.097 65.5554C112.373 66.1378 111.836 66.9013 111.488 67.8459C111.14 68.7905 110.966 69.8097 110.966 70.9034C110.966 71.9972 111.14 73.0128 111.488 73.9503C111.836 74.8878 112.373 75.6442 113.097 76.2195C113.821 76.7947 114.745 77.0824 115.867 77.0824ZM133.725 85.4773C132.51 85.4773 131.466 85.321 130.593 85.0085C129.719 84.7031 128.991 84.2983 128.409 83.794C127.833 83.2969 127.375 82.7642 127.034 82.196L129.037 80.7898C129.264 81.0881 129.552 81.429 129.9 81.8125C130.248 82.2031 130.724 82.5405 131.328 82.8246C131.938 83.1158 132.737 83.2614 133.725 83.2614C135.046 83.2614 136.136 82.9418 136.995 82.3026C137.855 81.6634 138.284 80.6619 138.284 79.2983V75.9744H138.071C137.887 76.2727 137.624 76.642 137.283 77.0824C136.949 77.5156 136.466 77.9027 135.834 78.2436C135.209 78.5774 134.364 78.7443 133.298 78.7443C131.977 78.7443 130.791 78.4318 129.74 77.8068C128.696 77.1818 127.869 76.2727 127.258 75.0795C126.654 73.8864 126.352 72.4375 126.352 70.733C126.352 69.0568 126.647 67.5973 127.237 66.3544C127.826 65.1044 128.646 64.1385 129.698 63.4567C130.749 62.7678 131.963 62.4233 133.341 62.4233C134.406 62.4233 135.252 62.6009 135.877 62.956C136.509 63.304 136.992 63.7017 137.325 64.1491C137.666 64.5895 137.929 64.9517 138.114 65.2358H138.369V62.6364H140.798V79.4688C140.798 80.875 140.479 82.0185 139.84 82.8991C139.208 83.7869 138.355 84.4368 137.283 84.8487C136.218 85.2678 135.031 85.4773 133.725 85.4773ZM133.639 76.4858C134.648 76.4858 135.5 76.255 136.196 75.7933C136.892 75.3317 137.421 74.6676 137.784 73.8011C138.146 72.9347 138.327 71.8977 138.327 70.6903C138.327 69.5114 138.149 68.4709 137.794 67.5689C137.439 66.6669 136.914 65.9602 136.218 65.4489C135.521 64.9375 134.662 64.6818 133.639 64.6818C132.574 64.6818 131.686 64.9517 130.976 65.4915C130.273 66.0312 129.744 66.7557 129.389 67.6648C129.041 68.5739 128.867 69.5824 128.867 70.6903C128.867 71.8267 129.044 72.8317 129.399 73.7053C129.762 74.5717 130.294 75.2536 130.997 75.7507C131.708 76.2408 132.588 76.4858 133.639 76.4858ZM152.048 79.3409C150.571 79.3409 149.275 78.9893 148.16 78.2862C147.052 77.5831 146.186 76.5994 145.561 75.3352C144.943 74.071 144.634 72.5937 144.634 70.9034C144.634 69.1989 144.943 67.7109 145.561 66.4396C146.186 65.1683 147.052 64.1811 148.16 63.478C149.275 62.7749 150.571 62.4233 152.048 62.4233C153.526 62.4233 154.818 62.7749 155.926 63.478C157.041 64.1811 157.908 65.1683 158.526 66.4396C159.151 67.7109 159.463 69.1989 159.463 70.9034C159.463 72.5937 159.151 74.071 158.526 75.3352C157.908 76.5994 157.041 77.5831 155.926 78.2862C154.818 78.9893 153.526 79.3409 152.048 79.3409ZM152.048 77.0824C153.171 77.0824 154.094 76.7947 154.818 76.2195C155.543 75.6442 156.079 74.8878 156.427 73.9503C156.775 73.0128 156.949 71.9972 156.949 70.9034C156.949 69.8097 156.775 68.7905 156.427 67.8459C156.079 66.9013 155.543 66.1378 154.818 65.5554C154.094 64.973 153.171 64.6818 152.048 64.6818C150.926 64.6818 150.003 64.973 149.279 65.5554C148.554 66.1378 148.018 66.9013 147.67 67.8459C147.322 68.7905 147.148 69.8097 147.148 70.9034C147.148 71.9972 147.322 73.0128 147.67 73.9503C148.018 74.8878 148.554 75.6442 149.279 76.2195C150.003 76.7947 150.926 77.0824 152.048 77.0824ZM178.599 79.3409C177.023 79.3409 175.663 78.9929 174.519 78.2969C173.383 77.5938 172.506 76.6136 171.888 75.3565C171.277 74.0923 170.972 72.6222 170.972 70.946C170.972 69.2699 171.277 67.7926 171.888 66.5142C172.506 65.2287 173.365 64.2273 174.466 63.5099C175.574 62.7855 176.866 62.4233 178.344 62.4233C179.196 62.4233 180.038 62.5653 180.869 62.8494C181.7 63.1335 182.456 63.5952 183.138 64.2344C183.82 64.8665 184.363 65.7045 184.768 66.7486C185.173 67.7926 185.375 69.0781 185.375 70.6051V71.6705H172.761V69.4972H182.818C182.818 68.5739 182.634 67.75 182.264 67.0256C181.902 66.3011 181.384 65.7294 180.709 65.3104C180.041 64.8913 179.253 64.6818 178.344 64.6818C177.342 64.6818 176.476 64.9304 175.744 65.4276C175.02 65.9176 174.462 66.5568 174.072 67.3452C173.681 68.1335 173.486 68.9787 173.486 69.8807V71.3295C173.486 72.5653 173.699 73.6129 174.125 74.4723C174.558 75.3246 175.158 75.9744 175.925 76.4219C176.692 76.8622 177.584 77.0824 178.599 77.0824C179.26 77.0824 179.857 76.9901 180.389 76.8054C180.929 76.6136 181.394 76.3295 181.785 75.9531C182.175 75.5696 182.477 75.0937 182.69 74.5256L185.119 75.2074C184.864 76.0312 184.434 76.7557 183.83 77.3807C183.227 77.9986 182.481 78.4815 181.593 78.8295C180.705 79.1705 179.707 79.3409 178.599 79.3409ZM189.2 79V62.6364H191.629V65.1932H191.842C192.183 64.3196 192.733 63.6413 193.493 63.1584C194.253 62.6683 195.165 62.4233 196.231 62.4233C197.31 62.4233 198.209 62.6683 198.926 63.1584C199.651 63.6413 200.215 64.3196 200.62 65.1932H200.79C201.21 64.348 201.838 63.6768 202.676 63.1797C203.514 62.6754 204.519 62.4233 205.691 62.4233C207.154 62.4233 208.351 62.8814 209.281 63.7976C210.212 64.7067 210.677 66.1236 210.677 68.0483V79H208.163V68.0483C208.163 66.8409 207.832 65.978 207.172 65.4595C206.511 64.9411 205.734 64.6818 204.839 64.6818C203.688 64.6818 202.797 65.0298 202.165 65.7259C201.533 66.4148 201.217 67.2884 201.217 68.3466V79H198.66V67.7926C198.66 66.8622 198.358 66.1129 197.754 65.5447C197.151 64.9695 196.373 64.6818 195.421 64.6818C194.768 64.6818 194.157 64.8558 193.589 65.2038C193.028 65.5518 192.573 66.0348 192.225 66.6527C191.884 67.2635 191.714 67.9702 191.714 68.7727V79H189.2ZM215.274 85.1364V62.6364H217.703V65.2358H218.001C218.186 64.9517 218.441 64.5895 218.768 64.1491C219.102 63.7017 219.578 63.304 220.196 62.956C220.821 62.6009 221.666 62.4233 222.731 62.4233C224.109 62.4233 225.324 62.7678 226.375 63.4567C227.426 64.1456 228.246 65.1222 228.836 66.3864C229.425 67.6506 229.72 69.142 229.72 70.8608C229.72 72.5938 229.425 74.0959 228.836 75.3672C228.246 76.6314 227.429 77.6115 226.385 78.3075C225.341 78.9964 224.137 79.3409 222.774 79.3409C221.723 79.3409 220.881 79.1669 220.249 78.8189C219.617 78.4638 219.13 78.0625 218.789 77.6151C218.449 77.1605 218.186 76.7841 218.001 76.4858H217.788V85.1364H215.274ZM217.745 70.8182C217.745 72.054 217.926 73.1442 218.289 74.0888C218.651 75.0263 219.18 75.7614 219.876 76.294C220.572 76.8196 221.424 77.0824 222.433 77.0824C223.484 77.0824 224.361 76.8054 225.064 76.2514C225.775 75.6903 226.307 74.9375 226.662 73.9929C227.025 73.0412 227.206 71.983 227.206 70.8182C227.206 69.6676 227.028 68.6307 226.673 67.7074C226.325 66.777 225.796 66.0419 225.086 65.5021C224.382 64.9553 223.498 64.6818 222.433 64.6818C221.41 64.6818 220.551 64.9411 219.855 65.4595C219.159 65.9709 218.633 66.6882 218.278 67.6115C217.923 68.5277 217.745 69.5966 217.745 70.8182ZM233.555 79V62.6364H235.984V65.108H236.154C236.453 64.2983 236.993 63.6413 237.774 63.1371C238.555 62.6328 239.436 62.3807 240.416 62.3807C240.6 62.3807 240.831 62.3842 241.108 62.3913C241.385 62.3984 241.595 62.4091 241.737 62.4233V64.9801C241.652 64.9588 241.456 64.9268 241.151 64.8842C240.853 64.8345 240.537 64.8097 240.203 64.8097C239.407 64.8097 238.697 64.9766 238.072 65.3104C237.454 65.6371 236.964 66.0916 236.602 66.674C236.247 67.2493 236.069 67.9062 236.069 68.6449V79H233.555ZM251.08 79.3409C249.503 79.3409 248.143 78.9929 247 78.2969C245.863 77.5938 244.986 76.6136 244.368 75.3565C243.757 74.0923 243.452 72.6222 243.452 70.946C243.452 69.2699 243.757 67.7926 244.368 66.5142C244.986 65.2287 245.846 64.2273 246.946 63.5099C248.054 62.7855 249.347 62.4233 250.824 62.4233C251.676 62.4233 252.518 62.5653 253.349 62.8494C254.18 63.1335 254.936 63.5952 255.618 64.2344C256.3 64.8665 256.843 65.7045 257.248 66.7486C257.653 67.7926 257.855 69.0781 257.855 70.6051V71.6705H245.242V69.4972H255.299C255.299 68.5739 255.114 67.75 254.745 67.0256C254.382 66.3011 253.864 65.7294 253.189 65.3104C252.522 64.8913 251.733 64.6818 250.824 64.6818C249.823 64.6818 248.956 64.9304 248.225 65.4276C247.5 65.9176 246.943 66.5568 246.552 67.3452C246.162 68.1335 245.966 68.9787 245.966 69.8807V71.3295C245.966 72.5653 246.179 73.6129 246.605 74.4723C247.039 75.3246 247.639 75.9744 248.406 76.4219C249.173 76.8622 250.064 77.0824 251.08 77.0824C251.74 77.0824 252.337 76.9901 252.87 76.8054C253.409 76.6136 253.875 76.3295 254.265 75.9531C254.656 75.5696 254.958 75.0937 255.171 74.5256L257.6 75.2074C257.344 76.0312 256.914 76.7557 256.311 77.3807C255.707 77.9986 254.961 78.4815 254.074 78.8295C253.186 79.1705 252.188 79.3409 251.08 79.3409ZM273.271 66.3011L271.012 66.9403C270.87 66.5639 270.661 66.1982 270.384 65.843C270.114 65.4808 269.745 65.1825 269.276 64.9482C268.807 64.7138 268.207 64.5966 267.475 64.5966C266.474 64.5966 265.64 64.8274 264.972 65.2891C264.311 65.7436 263.981 66.3224 263.981 67.0256C263.981 67.6506 264.208 68.1442 264.663 68.5064C265.118 68.8686 265.828 69.1705 266.794 69.4119L269.223 70.0085C270.686 70.3636 271.776 70.907 272.493 71.6385C273.211 72.3629 273.569 73.2969 273.569 74.4403C273.569 75.3778 273.299 76.2159 272.76 76.9545C272.227 77.6932 271.481 78.2756 270.522 78.7017C269.564 79.1278 268.449 79.3409 267.177 79.3409C265.508 79.3409 264.127 78.9787 263.033 78.2543C261.939 77.5298 261.247 76.4716 260.956 75.0795L263.342 74.483C263.569 75.3636 263.999 76.0241 264.631 76.4645C265.27 76.9048 266.105 77.125 267.135 77.125C268.306 77.125 269.237 76.8764 269.926 76.3793C270.622 75.875 270.97 75.2713 270.97 74.5682C270.97 74 270.771 73.5241 270.373 73.1406C269.975 72.75 269.365 72.4588 268.541 72.267L265.814 71.6278C264.315 71.2727 263.214 70.7223 262.511 69.9766C261.815 69.2237 261.467 68.2827 261.467 67.1534C261.467 66.2301 261.726 65.4134 262.245 64.7031C262.77 63.9929 263.484 63.4354 264.386 63.0305C265.295 62.6257 266.325 62.4233 267.475 62.4233C269.095 62.4233 270.366 62.7784 271.289 63.4886C272.22 64.1989 272.88 65.1364 273.271 66.3011ZM282.169 79.3835C281.132 79.3835 280.191 79.1882 279.346 78.7976C278.501 78.3999 277.83 77.8281 277.333 77.0824C276.835 76.3295 276.587 75.4205 276.587 74.3551C276.587 73.4176 276.771 72.6577 277.141 72.0753C277.51 71.4858 278.004 71.0241 278.622 70.6903C279.24 70.3565 279.921 70.108 280.667 69.9446C281.42 69.7741 282.176 69.6392 282.936 69.5398C283.931 69.4119 284.737 69.3161 285.355 69.2521C285.98 69.1811 286.434 69.0639 286.718 68.9006C287.009 68.7372 287.155 68.4531 287.155 68.0483V67.9631C287.155 66.9119 286.867 66.0952 286.292 65.5128C285.724 64.9304 284.861 64.6392 283.703 64.6392C282.503 64.6392 281.562 64.902 280.88 65.4276C280.198 65.9531 279.719 66.5142 279.442 67.1108L277.056 66.2585C277.482 65.2642 278.05 64.4901 278.76 63.9361C279.477 63.375 280.259 62.9844 281.104 62.7642C281.956 62.5369 282.794 62.4233 283.618 62.4233C284.144 62.4233 284.747 62.4872 285.429 62.6151C286.118 62.7358 286.782 62.9879 287.421 63.3714C288.068 63.755 288.604 64.3338 289.03 65.108C289.456 65.8821 289.669 66.919 289.669 68.2188V79H287.155V76.7841H287.027C286.857 77.1392 286.573 77.5192 286.175 77.924C285.777 78.3288 285.248 78.6733 284.588 78.9574C283.927 79.2415 283.121 79.3835 282.169 79.3835ZM282.553 77.125C283.547 77.125 284.385 76.9297 285.067 76.5391C285.756 76.1484 286.274 75.6442 286.622 75.0263C286.977 74.4084 287.155 73.7585 287.155 73.0767V70.7756C287.048 70.9034 286.814 71.0206 286.452 71.1271C286.097 71.2266 285.685 71.3153 285.216 71.3935C284.754 71.4645 284.303 71.5284 283.863 71.5852C283.43 71.6349 283.078 71.6776 282.808 71.7131C282.155 71.7983 281.544 71.9368 280.976 72.1286C280.415 72.3132 279.96 72.5937 279.612 72.9702C279.271 73.3395 279.101 73.8437 279.101 74.483C279.101 75.3565 279.424 76.017 280.07 76.4645C280.724 76.9048 281.551 77.125 282.553 77.125Z" fill="white"/>
</svg>
