<svg width="187" height="185" viewBox="0 0 187 185" fill="none" xmlns="http://www.w3.org/2000/svg">
<rect width="187" height="185" rx="20" fill="#343333"/>
<path d="M16.6849 104V87.6364H19.1139V90.1932H19.327C19.6679 89.3196 20.2183 88.6413 20.9782 88.1584C21.7382 87.6683 22.6508 87.4233 23.7162 87.4233C24.7957 87.4233 25.6942 87.6683 26.4115 88.1584C27.1359 88.6413 27.7006 89.3196 28.1054 90.1932H28.2758C28.6949 89.348 29.3234 88.6768 30.1615 88.1797C30.9996 87.6754 32.0045 87.4233 33.1764 87.4233C34.6395 87.4233 35.8362 87.8814 36.7666 88.7976C37.697 89.7067 38.1622 91.1236 38.1622 93.0483V104H35.648V93.0483C35.648 91.8409 35.3177 90.978 34.6572 90.4595C33.9967 89.9411 33.219 89.6818 32.3241 89.6818C31.1736 89.6818 30.2822 90.0298 29.6501 90.7259C29.018 91.4148 28.702 92.2884 28.702 93.3466V104H26.1452V92.7926C26.1452 91.8622 25.8433 91.1129 25.2396 90.5447C24.6359 89.9695 23.8582 89.6818 22.9065 89.6818C22.2531 89.6818 21.6423 89.8558 21.0741 90.2038C20.5131 90.5518 20.0585 91.0348 19.7105 91.6527C19.3696 92.2635 19.1991 92.9702 19.1991 93.7727V104H16.6849ZM42.7591 104V87.6364H45.2733V104H42.7591ZM44.0376 84.9091C43.5475 84.9091 43.1249 84.7422 42.7698 84.4084C42.4218 84.0746 42.2478 83.6733 42.2478 83.2045C42.2478 82.7358 42.4218 82.3345 42.7698 82.0007C43.1249 81.6669 43.5475 81.5 44.0376 81.5C44.5276 81.5 44.9466 81.6669 45.2947 82.0007C45.6498 82.3345 45.8273 82.7358 45.8273 83.2045C45.8273 83.6733 45.6498 84.0746 45.2947 84.4084C44.9466 84.7422 44.5276 84.9091 44.0376 84.9091ZM52.3925 94.1562V104H49.8783V87.6364H52.3073V90.1932H52.5203C52.9039 89.3622 53.4862 88.6946 54.2675 88.1903C55.0487 87.679 56.0573 87.4233 57.2931 87.4233C58.401 87.4233 59.3705 87.6506 60.2014 88.1051C61.0324 88.5526 61.6787 89.2344 62.1404 90.1506C62.602 91.0597 62.8328 92.2102 62.8328 93.6023V104H60.3186V93.7727C60.3186 92.4872 59.9848 91.4858 59.3172 90.7685C58.6496 90.044 57.7334 89.6818 56.5686 89.6818C55.7661 89.6818 55.0487 89.8558 54.4166 90.2038C53.7916 90.5518 53.298 91.0597 52.9358 91.7273C52.5736 92.3949 52.3925 93.2045 52.3925 94.1562ZM67.4271 104V87.6364H69.9413V104H67.4271ZM68.7055 84.9091C68.2155 84.9091 67.7929 84.7422 67.4378 84.4084C67.0898 84.0746 66.9157 83.6733 66.9157 83.2045C66.9157 82.7358 67.0898 82.3345 67.4378 82.0007C67.7929 81.6669 68.2155 81.5 68.7055 81.5C69.1956 81.5 69.6146 81.6669 69.9626 82.0007C70.3177 82.3345 70.4953 82.7358 70.4953 83.2045C70.4953 83.6733 70.3177 84.0746 69.9626 84.4084C69.6146 84.7422 69.1956 84.9091 68.7055 84.9091ZM86.1372 91.3011L83.8786 91.9403C83.7366 91.5639 83.5271 91.1982 83.2501 90.843C82.9802 90.4808 82.6109 90.1825 82.1421 89.9482C81.6734 89.7138 81.0732 89.5966 80.3417 89.5966C79.3403 89.5966 78.5058 89.8274 77.8382 90.2891C77.1776 90.7436 76.8474 91.3224 76.8474 92.0256C76.8474 92.6506 77.0747 93.1442 77.5292 93.5064C77.9838 93.8686 78.694 94.1705 79.6599 94.4119L82.0889 95.0085C83.5519 95.3636 84.6421 95.907 85.3595 96.6385C86.0768 97.3629 86.4355 98.2969 86.4355 99.4403C86.4355 100.378 86.1656 101.216 85.6258 101.955C85.0931 102.693 84.3474 103.276 83.3886 103.702C82.4298 104.128 81.3147 104.341 80.0434 104.341C78.3744 104.341 76.993 103.979 75.8992 103.254C74.8055 102.53 74.113 101.472 73.8218 100.08L76.2082 99.483C76.4355 100.364 76.8651 101.024 77.4972 101.464C78.1365 101.905 78.971 102.125 80.0008 102.125C81.1727 102.125 82.1031 101.876 82.792 101.379C83.488 100.875 83.836 100.271 83.836 99.5682C83.836 99 83.6372 98.5241 83.2394 98.1406C82.8417 97.75 82.2309 97.4588 81.407 97.267L78.6798 96.6278C77.1812 96.2727 76.0803 95.7223 75.3772 94.9766C74.6812 94.2237 74.3332 93.2827 74.3332 92.1534C74.3332 91.2301 74.5924 90.4134 75.1109 89.7031C75.6365 88.9929 76.3502 88.4354 77.2522 88.0305C78.1613 87.6257 79.1911 87.4233 80.3417 87.4233C81.961 87.4233 83.2323 87.7784 84.1556 88.4886C85.086 89.1989 85.7465 90.1364 86.1372 91.3011ZM97.3366 87.6364V89.767H88.8564V87.6364H97.3366ZM91.328 83.7159H93.8422V99.3125C93.8422 100.023 93.9452 100.555 94.1512 100.911C94.3643 101.259 94.6341 101.493 94.9608 101.614C95.2947 101.727 95.6462 101.784 96.0155 101.784C96.2925 101.784 96.5198 101.77 96.6974 101.741C96.8749 101.706 97.017 101.678 97.1235 101.656L97.6349 103.915C97.4644 103.979 97.2265 104.043 96.9211 104.107C96.6157 104.178 96.2286 104.213 95.7599 104.213C95.0496 104.213 94.3536 104.06 93.6718 103.755C92.9971 103.45 92.436 102.984 91.9885 102.359C91.5482 101.734 91.328 100.946 91.328 99.9943V83.7159ZM101.119 104V87.6364H103.547V90.108H103.718C104.016 89.2983 104.556 88.6413 105.337 88.1371C106.119 87.6328 106.999 87.3807 107.979 87.3807C108.164 87.3807 108.395 87.3842 108.672 87.3913C108.949 87.3984 109.158 87.4091 109.3 87.4233V89.9801C109.215 89.9588 109.02 89.9268 108.714 89.8842C108.416 89.8345 108.1 89.8097 107.766 89.8097C106.971 89.8097 106.261 89.9766 105.636 90.3104C105.018 90.6371 104.528 91.0916 104.165 91.674C103.81 92.2493 103.633 92.9062 103.633 93.6449V104H101.119ZM117.096 104.384C116.059 104.384 115.118 104.188 114.273 103.798C113.428 103.4 112.756 102.828 112.259 102.082C111.762 101.33 111.514 100.42 111.514 99.3551C111.514 98.4176 111.698 97.6577 112.068 97.0753C112.437 96.4858 112.93 96.0241 113.548 95.6903C114.166 95.3565 114.848 95.108 115.594 94.9446C116.347 94.7741 117.103 94.6392 117.863 94.5398C118.857 94.4119 119.663 94.3161 120.281 94.2521C120.906 94.1811 121.361 94.0639 121.645 93.9006C121.936 93.7372 122.082 93.4531 122.082 93.0483V92.9631C122.082 91.9119 121.794 91.0952 121.219 90.5128C120.651 89.9304 119.788 89.6392 118.63 89.6392C117.43 89.6392 116.489 89.902 115.807 90.4276C115.125 90.9531 114.646 91.5142 114.369 92.1108L111.982 91.2585C112.408 90.2642 112.977 89.4901 113.687 88.9361C114.404 88.375 115.185 87.9844 116.031 87.7642C116.883 87.5369 117.721 87.4233 118.545 87.4233C119.07 87.4233 119.674 87.4872 120.356 87.6151C121.045 87.7358 121.709 87.9879 122.348 88.3714C122.994 88.755 123.531 89.3338 123.957 90.108C124.383 90.8821 124.596 91.919 124.596 93.2188V104H122.082V101.784H121.954C121.783 102.139 121.499 102.519 121.102 102.924C120.704 103.329 120.175 103.673 119.514 103.957C118.854 104.241 118.048 104.384 117.096 104.384ZM117.479 102.125C118.474 102.125 119.312 101.93 119.994 101.539C120.683 101.148 121.201 100.644 121.549 100.026C121.904 99.4084 122.082 98.7585 122.082 98.0767V95.7756C121.975 95.9034 121.741 96.0206 121.379 96.1271C121.024 96.2266 120.612 96.3153 120.143 96.3935C119.681 96.4645 119.23 96.5284 118.79 96.5852C118.357 96.6349 118.005 96.6776 117.735 96.7131C117.082 96.7983 116.471 96.9368 115.903 97.1286C115.342 97.3132 114.887 97.5937 114.539 97.9702C114.198 98.3395 114.028 98.8437 114.028 99.483C114.028 100.357 114.351 101.017 114.997 101.464C115.651 101.905 116.478 102.125 117.479 102.125ZM131.699 94.1562V104H129.185V87.6364H131.614V90.1932H131.827C132.21 89.3622 132.793 88.6946 133.574 88.1903C134.355 87.679 135.364 87.4233 136.6 87.4233C137.708 87.4233 138.677 87.6506 139.508 88.1051C140.339 88.5526 140.985 89.2344 141.447 90.1506C141.909 91.0597 142.139 92.2102 142.139 93.6023V104H139.625V93.7727C139.625 92.4872 139.291 91.4858 138.624 90.7685C137.956 90.044 137.04 89.6818 135.875 89.6818C135.073 89.6818 134.355 89.8558 133.723 90.2038C133.098 90.5518 132.605 91.0597 132.242 91.7273C131.88 92.3949 131.699 93.2045 131.699 94.1562ZM153.85 87.6364V89.767H145.37V87.6364H153.85ZM147.842 83.7159H150.356V99.3125C150.356 100.023 150.459 100.555 150.665 100.911C150.878 101.259 151.148 101.493 151.475 101.614C151.808 101.727 152.16 101.784 152.529 101.784C152.806 101.784 153.033 101.77 153.211 101.741C153.389 101.706 153.531 101.678 153.637 101.656L154.149 103.915C153.978 103.979 153.74 104.043 153.435 104.107C153.129 104.178 152.742 104.213 152.274 104.213C151.563 104.213 150.867 104.06 150.185 103.755C149.511 103.45 148.95 102.984 148.502 102.359C148.062 101.734 147.842 100.946 147.842 99.9943V83.7159ZM164.317 104.341C162.741 104.341 161.38 103.993 160.237 103.297C159.101 102.594 158.223 101.614 157.606 100.357C156.995 99.0923 156.689 97.6222 156.689 95.946C156.689 94.2699 156.995 92.7926 157.606 91.5142C158.223 90.2287 159.083 89.2273 160.184 88.5099C161.292 87.7855 162.584 87.4233 164.062 87.4233C164.914 87.4233 165.755 87.5653 166.586 87.8494C167.417 88.1335 168.174 88.5952 168.856 89.2344C169.537 89.8665 170.081 90.7045 170.486 91.7486C170.89 92.7926 171.093 94.0781 171.093 95.6051V96.6705H158.479V94.4972H168.536C168.536 93.5739 168.351 92.75 167.982 92.0256C167.62 91.3011 167.101 90.7294 166.427 90.3104C165.759 89.8913 164.971 89.6818 164.062 89.6818C163.06 89.6818 162.194 89.9304 161.462 90.4276C160.738 90.9176 160.18 91.5568 159.79 92.3452C159.399 93.1335 159.204 93.9787 159.204 94.8807V96.3295C159.204 97.5653 159.417 98.6129 159.843 99.4723C160.276 100.325 160.876 100.974 161.643 101.422C162.41 101.862 163.302 102.082 164.317 102.082C164.978 102.082 165.574 101.99 166.107 101.805C166.647 101.614 167.112 101.33 167.503 100.953C167.893 100.57 168.195 100.094 168.408 99.5256L170.837 100.207C170.581 101.031 170.152 101.756 169.548 102.381C168.944 102.999 168.199 103.482 167.311 103.83C166.423 104.17 165.425 104.341 164.317 104.341Z" fill="white"/>
</svg>
